<?xml version="1.0"?>
<svg xmlns="http://www.w3.org/2000/svg" xmlns:xlink="http://www.w3.org/1999/xlink" xmlns:svgjs="http://svgjs.com/svgjs" version="1.1" width="512" height="512" x="0" y="0" viewBox="0 0 512 512" style="enable-background:new 0 0 512 512" xml:space="preserve" class=""><g><g xmlns="http://www.w3.org/2000/svg"><path d="m66 16h108c27.614 0 50 22.386 50 50v108c0 27.614-22.386 50-50 50h-108c-27.614 0-50-22.386-50-50v-108c0-27.614 22.386-50 50-50z" fill="#ff6161" data-original="#acebe2" style="" class=""/><path d="m338 16h108c27.614 0 50 22.386 50 50v108c0 27.614-22.386 50-50 50h-108c-27.614 0-50-22.386-50-50v-108c0-27.614 22.386-50 50-50z" fill="#ff6161" data-original="#acebe2" style="" class=""/><path d="m392 288c57.438 0 104 46.562 104 104 0 57.438-46.562 104-104 104-57.438 0-104-46.562-104-104 0-57.438 46.562-104 104-104z" fill="#ffffff" data-original="#f79caf" style="" class=""/><path d="m66 288h108c27.614 0 50 22.386 50 50v108c0 27.614-22.386 50-50 50h-108c-27.614 0-50-22.386-50-50v-108c0-27.614 22.386-50 50-50z" fill="#ff6161" data-original="#acebe2" style="" class=""/><path d="m224 66v108c0 27.61-22.39 50-50 50h-40c27.61 0 50-22.39 50-50v-108c0-27.61-22.39-50-50-50h40c27.61 0 50 22.39 50 50z" fill="#ff6161" data-original="#98d7ce" style="" class=""/><path d="m496 66v108c0 27.61-22.39 50-50 50h-40c27.61 0 50-22.39 50-50v-108c0-27.61-22.39-50-50-50h40c27.61 0 50 22.39 50 50z" fill="#ff6161" data-original="#98d7ce" style="" class=""/><path d="m496 392c0 28.72-11.64 54.72-30.46 73.54s-44.82 30.46-73.54 30.46c-6.84 0-13.53-.66-20-1.93 20.7-4.02 39.2-14.19 53.54-28.53 18.82-18.82 30.46-44.82 30.46-73.54 0-50.6-36.13-92.75-84-102.07 6.47-1.27 13.16-1.93 20-1.93 57.44 0 104 46.56 104 104z" fill="#ffffff" data-original="#e3889b" style="" class=""/><path d="m224 338v108c0 27.61-22.39 50-50 50h-40c27.61 0 50-22.39 50-50v-108c0-27.61-22.39-50-50-50h40c27.61 0 50 22.39 50 50z" fill="#ff6161" data-original="#98d7ce" style="" class=""/><g><path d="m174 240h-108c-36.393 0-66-29.607-66-66v-108c0-36.393 29.607-66 66-66h108c36.393 0 66 29.607 66 66v108c0 36.393-29.607 66-66 66zm-108-208c-18.748 0-34 15.252-34 34v108c0 18.748 15.252 34 34 34h108c18.748 0 34-15.252 34-34v-108c0-18.748-15.252-34-34-34z" fill="#000000" data-original="#000000" style="" class=""/></g><g><path d="m446 240h-108c-36.393 0-66-29.607-66-66v-108c0-36.393 29.607-66 66-66h108c36.393 0 66 29.607 66 66v108c0 36.393-29.607 66-66 66zm-108-208c-18.748 0-34 15.252-34 34v108c0 18.748 15.252 34 34 34h108c18.748 0 34-15.252 34-34v-108c0-18.748-15.252-34-34-34z" fill="#000000" data-original="#000000" style="" class=""/></g><g><path d="m392 512c-66.168 0-120-53.832-120-120s53.832-120 120-120 120 53.832 120 120-53.832 120-120 120zm0-208c-48.523 0-88 39.477-88 88s39.477 88 88 88 88-39.477 88-88-39.477-88-88-88z" fill="#000000" data-original="#000000" style="" class=""/></g><g><path d="m174 512h-108c-36.393 0-66-29.607-66-66v-108c0-36.393 29.607-66 66-66h108c36.393 0 66 29.607 66 66v108c0 36.393-29.607 66-66 66zm-108-208c-18.748 0-34 15.252-34 34v108c0 18.748 15.252 34 34 34h108c18.748 0 34-15.252 34-34v-108c0-18.748-15.252-34-34-34z" fill="#000000" data-original="#000000" style="" class=""/></g></g></g></svg>
