<?xml version="1.0"?>
<svg xmlns="http://www.w3.org/2000/svg" xmlns:xlink="http://www.w3.org/1999/xlink" xmlns:svgjs="http://svgjs.com/svgjs" version="1.1" width="512" height="512" x="0" y="0" viewBox="0 0 512 512" style="enable-background:new 0 0 512 512" xml:space="preserve" class=""><g><g xmlns="http://www.w3.org/2000/svg"><path d="m496 82v62h-480v-62c0-27.61 22.39-50 50-50h380c27.61 0 50 22.39 50 50z" fill="#ff6161" data-original="#acebe2" style="" class=""/><path d="m496 144v240h-66c-16.57 0-30 13.43-30 30v66h-334c-27.61 0-50-22.39-50-50v-286z" fill="#ffffff" data-original="#e2e0e0" style="" class=""/><path d="m496 384c0 7.68-1.52 15.21-4.41 22.17-2.88 6.97-7.13 13.37-12.56 18.8l-38.06 38.06c-10.87 10.87-25.6 16.97-40.97 16.97v-66c0-16.57 13.43-30 30-30z" fill="#ff6161" data-original="#f79caf" style="" class=""/><path d="m496 82v62h-40v-62c0-27.61-22.39-50-50-50h40c27.61 0 50 22.39 50 50z" fill="#ff6161" data-original="#98d7ce" style="" class=""/><path d="m456 144h40v240h-40z" fill="#ffffff" data-original="#cecccc" style="" class=""/><path d="m496 384c0 7.68-1.52 15.21-4.41 22.17-2.88 6.97-7.13 13.37-12.56 18.8l-38.06 38.06c-10.87 10.87-25.6 16.97-40.97 16.97v-16.03c.33-.3.65-.62.97-.94l38.06-38.06c5.43-5.43 9.68-11.83 12.56-18.8 2.89-6.96 4.41-14.49 4.41-22.17z" fill="#ff6161" data-original="#e3889b" style="" class=""/><path d="m446 16h-380c-36.393 0-66 29.607-66 66v348c0 36.393 29.607 66 66 66h334c19.75 0 38.318-7.691 52.284-21.657l38.059-38.059c13.966-13.965 21.657-32.534 21.657-52.284v-302c0-36.393-29.607-66-66-66zm-380 32h380c18.748 0 34 15.252 34 34v46h-448v-46c0-18.748 15.252-34 34-34zm-34 382v-270h448v208h-50c-25.364 0-46 20.636-46 46v50h-318c-18.748 0-34-15.252-34-34zm435.716-16.343-38.059 38.059c-3.977 3.976-8.61 7.056-13.657 9.137v-46.853c0-7.72 6.28-14 14-14h46.853c-2.082 5.046-5.161 9.681-9.137 13.657z" fill="#000000" data-original="#000000" style=""/><g><path d="m384 240h-256c-8.837 0-16-7.164-16-16s7.163-16 16-16h256c8.837 0 16 7.164 16 16s-7.163 16-16 16z" fill="#000000" data-original="#000000" style=""/></g><g><path d="m352 320h-192c-8.837 0-16-7.164-16-16s7.163-16 16-16h192c8.837 0 16 7.164 16 16s-7.163 16-16 16z" fill="#000000" data-original="#000000" style=""/></g></g></g></svg>
